<svg xmlns="http://www.w3.org/2000/svg" viewBox="0 0 512 512" width="512" height="512">
  <defs>
    <linearGradient id="learnGrad" x1="0%" y1="100%" x2="100%" y2="0%">
      <stop offset="0%" style="stop-color:#FBB03B;stop-opacity:1" />
      <stop offset="100%" style="stop-color:#E13D27;stop-opacity:1" />
    </linearGradient>
  </defs>
  
  <g transform="translate(25, 25) scale(0.9)">
    
    <g transform="translate(180, 20)">
      <circle cx="60" cy="60" r="50" fill="none" stroke="url(#learnGrad)" stroke-width="20"/>
      
      <path d="M60,130 C-10,130 -60,200 -60,280 L60,320 L180,280 C180,200 130,130 60,130 Z" 
            fill="none" stroke="url(#learnGrad)" stroke-width="20" stroke-linecap="round" stroke-linejoin="round"/>
    </g>
    
    <g transform="translate(40, 310)">
      <path d="M190,0 C120,-20 60,-10 -20,0 L-20,180 C60,170 120,160 190,180 C190,180 190,0 190,0 Z" 
            fill="none" stroke="url(#learnGrad)" stroke-width="20" stroke-linecap="round" stroke-linejoin="round"/>
      
      <path d="M230,0 C300,-20 360,-10 440,0 L440,180 C360,170 300,160 230,180 C230,180 230,0 230,0 Z" 
            fill="none" stroke="url(#learnGrad)" stroke-width="20" stroke-linecap="round" stroke-linejoin="round"/>
    </g>
    
  </g>
</svg>