<svg xmlns="http://www.w3.org/2000/svg" viewBox="0 0 512 512" width="512" height="512">
  <defs>
    <linearGradient id="researchGrad" x1="0%" y1="0%" x2="100%" y2="100%">
      <stop offset="0%" style="stop-color:#fbb03b;stop-opacity:1" />
      <stop offset="50%" style="stop-color:#e13d27;stop-opacity:1" />
      <stop offset="100%" style="stop-color:#b00000;stop-opacity:1" />
    </linearGradient>
  </defs>
  
  <g transform="translate(20, 20) scale(0.92)"> <g transform="translate(15, 10)">
      <ellipse cx="110" cy="110" rx="90" ry="40" transform="rotate(-30 110 110)" 
               fill="none" stroke="url(#researchGrad)" stroke-width="12" stroke-linecap="round"/>
      <ellipse cx="110" cy="110" rx="90" ry="40" transform="rotate(30 110 110)" 
               fill="none" stroke="url(#researchGrad)" stroke-width="12" stroke-linecap="round"/>
      <ellipse cx="110" cy="110" rx="90" ry="40" transform="rotate(90 110 110)" 
               fill="none" stroke="url(#researchGrad)" stroke-width="12" stroke-linecap="round"/>
      <circle cx="110" cy="110" r="18" fill="url(#researchGrad)" stroke="none"/>
      <circle cx="20" cy="80" r="10" fill="url(#researchGrad)" stroke="none"/>
      <circle cx="190" cy="150" r="10" fill="url(#researchGrad)" stroke="none"/>
      <circle cx="110" cy="200" r="10" fill="url(#researchGrad)" stroke="none"/>
    </g>

    <g transform="translate(15, 230)">
      <circle cx="20" cy="20" r="8" fill="url(#researchGrad)" stroke="none"/>
      <circle cx="20" cy="60" r="8" fill="url(#researchGrad)" stroke="none"/>
      <circle cx="20" cy="100" r="8" fill="url(#researchGrad)" stroke="none"/>
      <circle cx="60" cy="20" r="8" fill="url(#researchGrad)" stroke="none"/>
      <circle cx="60" cy="60" r="8" fill="url(#researchGrad)" stroke="none"/>
      <circle cx="60" cy="100" r="8" fill="url(#researchGrad)" stroke="none"/>
      <polygon points="40,150 20,185 60,185" fill="url(#researchGrad)" stroke="none"/>
    </g>

    <g transform="translate(200, 100)">
      <path d="M180,300 C180,200 250,150 250,50 L250,20 C250,10 240,0 230,0 L120,0 C110,0 100,10 100,20 L100,50 C100,100 120,130 150,150 L150,250" 
            fill="none" stroke="url(#researchGrad)" stroke-width="12" stroke-linecap="round" stroke-linejoin="round"/>
      <circle cx="180" cy="300" r="30" fill="none" stroke="url(#researchGrad)" stroke-width="12"/>
      <polygon points="120,380 180,310 240,380" fill="url(#researchGrad)" stroke="none"/>
      
      <rect x="50" y="270" width="200" height="20" rx="5" 
            fill="none" stroke="url(#researchGrad)" stroke-width="12" stroke-linecap="round"/>
      <rect x="130" y="250" width="40" height="20" rx="5" 
            fill="url(#researchGrad)" stroke="none"/>
      <rect x="160" y="20" width="80" height="30" rx="10" 
            fill="url(#researchGrad)" stroke="none"/>
      <path d="M200,50 L200,100 M175,70 L175,120" 
            fill="none" stroke="url(#researchGrad)" stroke-width="8" stroke-linecap="round"/>
    </g>
    
    <line x1="10" y1="480" x2="490" y2="480" 
          stroke="url(#researchGrad)" stroke-width="12" stroke-linecap="round"/>
  </g>
</svg>